<?xml version="1.0" encoding="utf-8"?>
<!-- Generator: Adobe Illustrator 26.3.1, SVG Export Plug-In . SVG Version: 6.00 Build 0)  -->
<svg version="1.1" id="Layer_1" xmlns="http://www.w3.org/2000/svg" xmlns:xlink="http://www.w3.org/1999/xlink" x="0px" y="0px"
	 viewBox="0 0 1000 1000" style="enable-background:new 0 0 1000 1000;" xml:space="preserve">
<style type="text/css">
	.st0{fill:#007B7D;}
</style>
<g>
	<path d="M897.78,438.59c-9.62-8.7-20.88-16-35.43-22.98c-27.1-13-57.62-21.92-93.31-27.25c-52.91-7.9-165.02-16.88-186.51,32
		l-0.05,0.12c-0.94,2.14-1.91,4.35-2.34,4.64c-0.57,0.09-2.7-0.94-4.76-1.93c-34.81-16.75-74.36-21.81-120.91-15.48
		c-19.13,2.6-38.4,7.98-57.26,15.99c-0.97,0.41-1.29,0.34-1.29,0.34c-0.01-0.01-0.29-0.16-0.8-1.29c-1.64-3.63-3.51-7.36-5.54-11.1
		c-16.51-30.35-37.17-59.72-63.18-89.81c-28.94-33.48-55.07-57.64-82.22-76.03c-21.15-14.33-38.67-22.53-56.82-26.6
		c-3.8-0.85-6.31-1.42-8.06,0.08c-1.75,1.49-1.59,4.03-1.36,7.88c1.34,21.88,7.95,42.24,13.57,57.53
		c12.93,35.2,31.98,69.3,58.25,104.25c25.62,34.09,52.23,59.57,81.34,77.88c0.28,0.17,0.46,0.31,0.57,0.41
		c-0.08,0.13-0.21,0.31-0.42,0.56c-4.33,5.17-8.13,11.36-11.95,19.46c-8.55,18.16-12.79,39.16-13.36,66.08
		c-0.67,31.66-3.98,59.41-10.12,84.84c-3.53,14.62-4.36,25.99-2.7,36.89c2.89,18.92,12.45,35.96,29.25,52.09
		c15.66,15.05,34.92,26.59,60.59,36.31c32.12,12.16,65.97,18.12,103.05,18.12c5.01,0,10.08-0.11,15.22-0.33
		c30.14-1.28,57.09-6.36,82.4-15.55c31.4-11.39,56.55-27.89,76.89-50.44c17.57-19.49,23.62-40.63,18.48-64.66
		c-6.15-28.74-8.65-52.54-7.89-74.92l0.08-2.34l-0.98,0.03c0-1.43,0-2.86,0.01-4.29c0.01-4.78,0.02-9.57-0.01-14.35
		c-0.17-27.34-6.43-50.96-19.08-71.85c1.57,0.63,3.47,1.14,5.77,1.45c59.89,8.08,118.92,5.33,175.45-8.17
		c24.7-5.9,45.68-14.03,64.14-24.87c3.09-1.81,5.47-3.39,5.72-5.85C902.47,443.04,900.45,441,897.78,438.59z M818.34,409.52
		c-2.21,13.82-8.45,26.89-19.64,41.12c-6.74,8.57-14.83,16.57-25.45,25.18c-2.06,1.67-4.29,2.55-7.02,2.77
		c-33.5,2.77-64.55,2.45-94.94-0.97c-26.86-3.02-25.12-19.31-44.71-5.84c-0.14,0.1-0.29,0.19-0.44,0.29
		c-0.92,0.59-2.32,1.47-2.65,3.14c-0.21,1.06,0.07,2.15,0.84,3.23c1.61,2.27,3.8,2.46,6.51,0.56c0.16-0.11,0.32-0.22,0.52-0.35
		c1.95-1.23,4.15-2.63,4.67-2.51c0.54,0.12,2.08,2.34,3.43,4.3c13.55,19.63,20.92,41.81,21.9,65.92c0.34,8.39,0.64,16.93,0.93,25.18
		c0.38,10.75,0.77,21.87,1.25,32.8c0.19,4.36,0.72,8.74,1.22,12.98c0.23,1.93,0.46,3.85,0.66,5.78c0.01,0.11,0.03,0.22,0.04,0.33
		c-15.04-4.64-29.05-1.62-40.68,8.79c-11.46,10.25-18.57,23.87-21.13,40.46c-2.3,14.89,0.24,28.57,7.55,40.67
		c4.78,7.91,11.38,13.61,20.11,17.35c-7.05,5.6-14.26,9.88-19.95,13.07c-25.48,14.29-53.79,23.17-86.55,27.15
		c-41.66,5.06-81.94,2.08-119.73-8.86c-27.06-7.83-47.84-17.77-65.23-31.2c1.86-0.77,3.62-1.52,5.37-2.42
		c7.2-3.67,17.4-11,22.9-32.1c6.68-25.64-2.02-52.72-21.64-67.37c-12.01-8.97-25.03-11.42-38.7-7.29
		c4.73-22.62,5.86-44.9,6.34-63.72c0.46-18.17,1.98-39.48,9.7-59.78c3.25-8.56,7.75-16.73,13.73-24.98
		c1.39-1.91,1.94-1.77,3.28-0.83c0.88,0.62,1.8,1.05,2.69,1.46c0.46,0.21,0.91,0.42,1.35,0.66c2.24,1.22,4.42,0.68,5.7-1.42
		c0.7-1.16,1.44-3.42-1.46-5.61c-0.58-0.44-1.18-0.75-1.71-1.02l-0.15-0.08c-21.5-11.16-41.4-26.79-62.63-49.19
		c-16.78-17.71-32.09-37.27-46.8-59.78c-2.21-3.38-3.27-6.76-3.33-10.64c-0.47-27.96,5.78-53.77,18.59-76.71
		c0.73-1.3,2.42-4.34,3.11-4.56c0.01,0,0.01,0,0.02,0c0.78,0,3.52,2.32,4.56,3.2c47.89,40.47,88.47,89.39,120.62,145.41
		c3.75,6.54,7.02,13.32,9.7,20.14c0.26,0.66,0.56,1.41,0.92,2.16c1.87,3.78,4.82,2.86,5.68,2.48c1.54-0.67,2.15-1.73,2.39-2.51
		c0.36-1.15,0.14-2.44-0.61-3.65c-0.26-0.42-0.35-0.67-0.38-0.8c0.14-0.12,0.51-0.37,1.48-0.76c19.07-7.5,36.93-12.41,54.6-15
		c21.78-3.19,43.22-3.47,63.72-0.82c20.54,2.65,39.56,8.41,56.54,17.12c1.3,0.67,1.48,1.07,1.5,1.14c0.05,0.16-0.03,0.58-0.39,1.25
		c-0.63,1.16-1,2.37-1.36,3.53l-0.24,0.76c-0.35,1.09-1.42,4.4,2.19,5.84c2.52,1.01,4.42,0.01,5.68-3.05
		c0.82-1.98,1.62-3.96,2.43-5.94c0.96-2.35,1.91-4.7,2.89-7.05c15.99-38.63,102.86-38.51,146.85-35.78
		c27.32,1.7,54.96,6.45,82.16,14.12C818.54,407.71,818.63,407.73,818.34,409.52z"/>
	<path d="M557.44,647.75c-2,0.08-3.3,1.67-4.24,2.83c-0.23,0.28-0.44,0.55-0.65,0.77c-8.78,8.96-19.21,11.78-31.9,8.62
		c-9.75-2.43-18.01-7.71-27.03-13.86c-5.2-3.55-7.25-3.49-12.16,0.36c-4.95,3.87-10.36,7.86-16.45,10.75
		c-13.53,6.43-25.05,5.3-35.24-3.46c-2.05-1.76-4.07-3.93-6.34-6.8c-1.03-1.3-3.77-4.05-7.02-1.5c-2.14,1.68-2.19,3.88-0.14,6.54
		l0.61,0.8c2.05,2.71,4.17,5.5,7.19,7.52c2.51,1.68,3.22,3.93,3.6,7.26c3.42,29.99,14.89,56.03,34.07,77.39
		c5.95,6.63,13.87,13.42,27.46,13.55l0.11,0l0.11-0.01c5.44-0.5,12.05-3.37,18.13-7.87c9.17-6.79,15.5-15.85,20.97-24.63
		c9.85-15.8,16.28-33.95,20.24-57.12c0.52-3.05,1.68-4.86,4.01-6.26c1.94-1.16,3.83-2.76,5.95-5.02c0.21-0.23,0.47-0.46,0.74-0.7
		c1.12-1.02,2.64-2.42,2.71-4.42c0.02-0.79-0.19-1.99-1.34-3.19C559.8,648.22,558.65,647.71,557.44,647.75z M532.05,698.91
		c-5.32,13.44-13.29,30.49-27.82,43.2c-3.91,3.42-7.57,5.58-11.53,6.8c-6.42,1.98-12.17,0.84-17.57-3.48
		c-10.6-8.47-19-19.78-26.41-35.6c-1.29-2.76-2.59-5.75-3.96-9.13c-1.44-3.55-1.44-3.55,1.81-5.46c12.29-7.23,25.3-10.89,38.7-10.89
		c0.43,0,0.86,0,1.29,0.01h0.06c15.1-0.16,29.53,3.78,44.13,12.05C532.62,697.48,532.44,697.93,532.05,698.91z"/>
	<path d="M569.17,552.06c-8.56,8.03-12.69,18.37-12.63,31.61c-0.15,7.9,2.38,16.22,7.12,23.43c7.58,11.51,17.42,17.33,29.28,17.33
		c0.81,0,1.63-0.03,2.45-0.08c13.16-0.86,23.01-7.96,29.28-21.11c7.49-15.69,3.87-36.9-8.41-49.32
		C602.8,540.31,582.56,539.5,569.17,552.06z M584.38,581.8c-0.04,0-0.07,0-0.1,0c-6.02,0-11.35-5.87-11.43-12.63
		c-0.04-3.47,1.21-6.67,3.51-9.02c2.13-2.16,4.96-3.36,7.99-3.37c0.02,0,0.03,0,0.04,0c2.84,0,5.55,1.14,7.65,3.22
		c2.31,2.3,3.64,5.56,3.65,8.95C595.7,575.84,590.52,581.73,584.38,581.8z"/>
	<path d="M416.48,581.59c-0.13-8.11-1.67-14.52-5-20.77c-5.24-9.83-13.58-16.31-23.49-18.23c-9.74-1.89-19.66,0.9-27.95,7.86
		c-8.3,6.97-13.65,17.71-14.68,29.49c-1.03,11.78,2.37,23.28,9.33,31.56c6.63,7.88,15.71,11.97,24.95,11.97
		c6.58,0,13.23-2.07,19.13-6.33c11.7-8.43,17.65-20.38,17.7-35.51V581.59z M397.3,577.94c-2.1,2.07-4.81,3.19-7.73,3.15
		c-6.35-0.08-11.39-5.45-11.48-12.23c-0.04-3.36,1.29-6.68,3.67-9.12c2.17-2.23,4.94-3.47,7.8-3.5c0.04,0,0.08,0,0.12,0
		c2.75,0,5.41,1.14,7.52,3.22c2.42,2.4,3.81,5.77,3.81,9.25C401,572.31,399.69,575.59,397.3,577.94z"/>
	<path d="M486.76,632.45l0.37,0.12l0.39-0.02c4.16-0.21,6.59-2.57,8.55-4.47l0.29-0.28c1.77-1.71,2.48-3.93,1.91-5.94
		c-0.58-2.02-2.29-3.47-4.7-3.98c-3.82-0.81-7.84-0.82-11.94-0.03c-2.04,0.39-3.71,1.74-4.46,3.61c-0.68,1.69-0.47,3.57,0.56,5.03
		C480.26,630.09,484.1,631.61,486.76,632.45z"/>
</g>
</svg>
